<?xml version="1.0" encoding="UTF-8"?>
<svg version="1.1" xmlns="http://www.w3.org/2000/svg" width="3327" height="1336">
<path d="M0 0 C237.93 0 475.86 0 721 0 C721 265.32 721 530.64 721 804 C483.07 804 245.14 804 0 804 C0 538.68 0 273.36 0 0 Z M24 24 C24 69.54 24 115.08 24 162 C64.92 162 105.84 162 148 162 C148 116.46 148 70.92 148 24 C107.08 24 66.16 24 24 24 Z M220 24 C220 69.54 220 115.08 220 162 C336.16 162 452.32 162 572 162 C572 301.59 572 441.18 572 585 C612.92 585 653.84 585 696 585 C696 399.87 696 214.74 696 24 C538.92 24 381.84 24 220 24 Z M24 233 C24 413.18 24 593.36 24 779 C181.41 779 338.82 779 501 779 C501 738.41 501 697.82 501 656 C384.51 656 268.02 656 148 656 C148 516.41 148 376.82 148 233 C107.08 233 66.16 233 24 233 Z M220 233 C220 349.16 220 465.32 220 585 C312.73 585 405.46 585 501 585 C501 468.84 501 352.68 501 233 C408.27 233 315.54 233 220 233 Z M572 656 C572 696.59 572 737.18 572 779 C612.92 779 653.84 779 696 779 C696 738.41 696 697.82 696 656 C655.08 656 614.16 656 572 656 Z " fill="#F37924" transform="translate(149,330)"/>
<path d="M0 0 C23.76 0 47.52 0 72 0 C78.89080088 24.11780307 78.89080088 24.11780307 80.91479492 31.78710938 C81.15569571 32.6931019 81.39659651 33.59909443 81.64479733 34.53254128 C82.42517464 37.4691311 83.20282448 40.40643538 83.98046875 43.34375 C84.54846376 45.48295082 85.11665609 47.62209926 85.68502808 49.76119995 C86.89346192 54.31047062 88.10077668 58.86003607 89.30715942 63.40985107 C92.19495439 74.30055115 95.08883673 85.18963437 97.98238182 96.07880783 C98.64699392 98.58001242 99.31153542 101.08123577 99.97600746 103.58247757 C107.30960067 131.18762822 114.68148795 158.782496 122.0625 186.375 C122.64619371 188.55720913 123.22988312 190.7394194 123.81356812 192.92163086 C126.99173504 204.80358075 126.99173504 204.80358075 130.17086792 216.68527222 C132.78539459 226.45556817 135.39607984 236.2268713 138 246 C143.27429218 228.07055072 147.9902579 209.99989591 152.71046066 191.9190712 C154.5593593 184.8408901 156.41468484 177.76438799 158.26859093 170.68751717 C159.00182409 167.88827973 159.73478736 165.08897172 160.46772766 162.28965759 C167.10985886 136.92636765 173.8037529 111.57670526 180.49584961 86.2265625 C180.86836145 84.81543277 180.86836145 84.81543277 181.24839878 83.37579536 C181.49477054 82.44250341 181.74114229 81.50921146 181.99497986 80.54763794 C182.23924147 79.62233402 182.48350307 78.69703011 182.73516655 77.74368668 C183.22206241 75.89930605 183.70898664 74.05493291 184.19594002 72.21056747 C187.16014931 60.98306352 190.1176382 49.75383449 193.06423759 38.52169609 C194.22034031 34.11618586 195.37867152 29.71126096 196.53665161 25.3062439 C197.13104316 23.0422643 197.72422919 20.77796782 198.31613159 18.51333618 C199.10230726 15.50549511 199.89244405 12.49872333 200.68359375 9.4921875 C200.90837402 8.62731216 201.1331543 7.76243683 201.36474609 6.87135315 C202.88604685 1.11395315 202.88604685 1.11395315 204 0 C227.43 0 250.86 0 275 0 C275 125.07 275 250.14 275 379 C252.23 379 229.46 379 206 379 C205.67 324.22 205.34 269.44 205 213 C200.441875 231.85125 195.88375 250.7025 191.1875 270.125 C189.77364014 275.97105957 188.35978027 281.81711914 186.90307617 287.84033203 C179.55899977 318.21670953 172.25394252 348.6019336 165 379 C147.84 379 130.68 379 113 379 C99.47 324.88 85.94 270.76 72 215 C71.67 269.12 71.34 323.24 71 379 C47.57 379 24.14 379 0 379 C0 253.93 0 128.86 0 0 Z " fill="#FFFFFF" transform="translate(1670,565)"/>
<path d="M0 0 C117.23868334 0 117.23868334 0 130.6875 4.1875 C131.3875415 4.40108154 132.08758301 4.61466309 132.80883789 4.8347168 C150.17374755 10.41212886 164.35212292 21.1396963 172.7890625 37.4609375 C178.40360431 49.98993966 181.12605877 62.59061254 181.17700195 76.2734375 C181.18357315 77.05845139 181.19014435 77.84346527 181.19691467 78.65226746 C181.21647311 81.22651296 181.22827351 83.80070051 181.23828125 86.375 C181.24235678 87.26339569 181.2464323 88.15179138 181.25063133 89.06710815 C181.271422 93.77341471 181.28575151 98.47969276 181.29516602 103.18603516 C181.3061914 108.00250933 181.34056673 112.8185166 181.38033772 117.63482666 C181.40671082 121.37734732 181.41487621 125.11976035 181.41844749 128.86236572 C181.42326337 130.63546894 181.43473084 132.40856902 181.45348549 134.18157959 C181.65766597 154.77002606 177.73922259 174.11757166 162.87109375 189.4609375 C154.9553839 196.46122513 145.99786209 201.5675126 136 205 C138.74202828 213.68635389 142.13671345 222.10380197 145.5 230.5625 C146.16266894 232.23444502 146.82509728 233.90648541 147.48730469 235.57861328 C148.91022139 239.1705765 150.33450171 242.76199485 151.75976562 246.35302734 C154.02578645 252.06333536 156.2868504 257.77559783 158.546875 263.48828125 C161.722986 271.51601023 164.89987784 279.54342898 168.078125 287.5703125 C168.48095703 288.58770004 168.88378906 289.60508759 169.29882812 290.65330505 C171.37277863 295.89104661 173.44699038 301.12868461 175.52148438 306.36621094 C176.14725121 307.94611565 176.14725121 307.94611565 176.78565979 309.55793762 C177.62381265 311.67406193 178.46197786 313.79018134 179.30015564 315.90629578 C182.47898407 323.93250531 185.65418385 331.96014648 188.82826233 339.98823547 C190.8074859 344.99230441 192.79223114 349.99410255 194.78536987 354.99264526 C195.60142163 357.04033637 196.41541627 359.08883032 197.22851562 361.13769531 C198.16717545 363.50193689 199.1095826 365.86469593 200.05664062 368.22558594 C200.45431641 369.23008789 200.85199219 370.23458984 201.26171875 371.26953125 C201.60162842 372.12135986 201.94153809 372.97318848 202.29174805 373.85083008 C203 376 203 376 203 379 C176.93 379 150.86 379 124 379 C106.23071289 319.76904297 106.23071289 319.76904297 105.13840294 316.12796402 C104.41106149 313.7035231 103.68368638 311.27909228 102.95627785 308.85467148 C101.13855001 302.7961119 99.32140444 296.73737886 97.50546265 290.67828369 C94.2336511 279.76357328 90.95770591 268.85019536 87.6597929 257.94333839 C86.2435242 253.25873601 84.83010856 248.57327501 83.41688728 243.88775253 C82.75021382 241.68054332 82.08205531 239.47378206 81.41235161 237.26749039 C80.49397733 234.24175633 79.58055343 231.21456956 78.66821289 228.18701172 C78.39551386 227.2934988 78.12281483 226.39998589 77.84185219 225.47939682 C77.59711851 224.66384449 77.35238483 223.84829216 77.10023499 223.00802612 C76.88635667 222.30176023 76.67247835 221.59549435 76.45211887 220.86782646 C76 219 76 219 76 216 C75.01 216 74.02 216 73 216 C73 269.79 73 323.58 73 379 C48.91 379 24.82 379 0 379 C0 253.93 0 128.86 0 0 Z M73 61 C73 93.34 73 125.68 73 159 C89.1172128 159.88409881 89.1172128 159.88409881 103.38694763 153.69786072 C110.09913268 146.63277371 109.57916671 136.42384749 109.49609375 127.33984375 C109.49624915 125.94080022 109.49774482 124.54175627 109.50050354 123.14271545 C109.50187931 120.22702736 109.4894679 117.31183611 109.46655273 114.39624023 C109.43814344 110.68215721 109.44092342 106.96889629 109.45364285 103.25475216 C109.46063772 100.37115099 109.45276811 97.4877358 109.44038582 94.6041584 C109.43591004 93.23559854 109.43550013 91.86701844 109.43945122 90.49845695 C109.67532485 78.03146788 109.67532485 78.03146788 104.40208435 67.12901306 C95.94283032 58.79253697 84.14050387 61 73 61 Z " fill="#FFFFFF" transform="translate(1196,565)"/>
<path d="M0 0 C24.09 0 48.18 0 73 0 C73.0093457 9.34892578 73.01869141 18.69785156 73.02832031 28.33007812 C73.06102776 58.24275095 73.11331335 88.15536089 73.17792095 118.06798115 C73.18793841 122.71426577 73.19778254 127.36055073 73.20751953 132.00683594 C73.2094609 132.93182803 73.21140228 133.85682013 73.21340248 134.80984229 C73.24442396 149.78737598 73.26140355 164.76489435 73.27319422 179.74245411 C73.28560501 195.11070512 73.31310479 210.4788757 73.35461307 225.84707594 C73.37975053 235.3301688 73.3931171 244.81312828 73.39142957 254.29625493 C73.39139982 260.79910765 73.40602603 267.30182449 73.43216428 273.80462426 C73.44681266 277.55649397 73.45501123 281.30808505 73.44580269 285.05997849 C73.43598252 289.12997251 73.45703069 293.19923004 73.48101807 297.26916504 C73.46937744 299.0435019 73.46937744 299.0435019 73.45750165 300.85368395 C73.52892541 307.69047701 74.29369778 312.19676066 78 318 C84.42020617 322.97565978 92.2025839 322.65211365 100 322 C104.80142548 320.7487651 107.85460741 318.75902501 110.4375 314.5 C112.44818318 309.99606968 113.12462361 306.63184277 113.1386652 301.71327591 C113.14413964 300.63590927 113.14961409 299.55854264 113.15525442 298.44852853 C113.15623253 297.26565877 113.15721064 296.08278901 113.15821838 294.86407471 C113.16315636 293.60700643 113.16809434 292.34993816 113.17318195 291.05477691 C113.18676354 287.56353442 113.19418148 284.07230166 113.20060861 280.58103967 C113.20861245 276.81691868 113.22231029 273.05281796 113.23532104 269.28871155 C113.25708401 262.76645797 113.27522916 256.24420235 113.29092598 249.72193146 C113.31362623 240.29179104 113.34176886 230.86167305 113.37124526 221.43155167 C113.41891925 206.13227482 113.46218396 190.8329888 113.50268555 175.53369141 C113.54204145 160.67072841 113.58346791 145.80777358 113.62768555 130.94482422 C113.63040982 130.02886747 113.63313409 129.11291072 113.63594092 128.16919771 C113.64962041 123.57417027 113.66334068 118.97914295 113.67708123 114.3841157 C113.79104298 76.25609311 113.89704247 38.1280542 114 0 C137.76 0 161.52 0 186 0 C186.06619249 40.12860414 186.12156339 80.25715659 186.15319599 120.38579974 C186.15694791 125.12821229 186.16083089 129.87062473 186.16479492 134.61303711 C186.16558185 135.55712734 186.16636878 136.50121756 186.16717956 137.47391658 C186.18021741 152.74096992 186.20386229 168.00798922 186.23145839 183.27502239 C186.25955776 198.95175474 186.27618583 214.6284693 186.28226548 230.30522579 C186.28637254 239.97102841 186.29932312 249.63673477 186.3237494 259.30250775 C186.33966259 265.93945014 186.34438778 272.5763431 186.34050413 279.21330316 C186.33859124 283.03690547 186.34142947 286.86034012 186.35761642 290.68391228 C186.37509485 294.84326128 186.36891899 299.00225861 186.36076355 303.16163635 C186.36950207 304.35137434 186.3782406 305.54111233 186.38724393 306.76690298 C186.27731891 327.63801579 179.81307175 347.34032858 165.40625 362.68359375 C145.61220299 381.73857732 115.4535702 385.63362884 89.11328125 385.18359375 C63.90632321 384.19351806 37.52332287 379.64399598 19 361 C3.63491497 342.994866 -0.35542006 321.43517768 -0.24050903 298.35145569 C-0.24221788 297.06457098 -0.24392673 295.77768627 -0.24568737 294.45180506 C-0.25010306 290.92835757 -0.24223825 287.40503454 -0.23213124 283.88160288 C-0.22341436 280.06383535 -0.22642267 276.24607365 -0.22793579 272.42829895 C-0.22897948 265.82982308 -0.22275717 259.23138707 -0.21146011 252.63292122 C-0.19513763 243.09290293 -0.18999024 233.55290372 -0.18748413 224.01287299 C-0.18311756 208.53111341 -0.16983677 193.04937503 -0.15087891 177.56762695 C-0.13249314 162.53735459 -0.11834986 147.507088 -0.10986328 132.47680664 C-0.10933783 131.54880487 -0.10881239 130.6208031 -0.10827102 129.66468007 C-0.10566076 125.00870939 -0.10313338 120.35273867 -0.10064721 115.69676793 C-0.07994707 77.13115979 -0.04309486 38.56559089 0 0 Z " fill="#FFFFFF" transform="translate(2764,566)"/>
<path d="M0 0 C31.02 0 62.04 0 94 0 C98.98271724 27.8189495 103.96434036 55.63809422 108.94403267 83.45758533 C111.25691399 96.37850526 113.57026298 109.2993411 115.88476562 122.2199707 C117.90521149 133.49904586 119.92472627 144.77828729 121.94318378 156.05771846 C123.00912546 162.01417576 124.07549186 167.97055623 125.14297867 173.92673683 C138.14755779 246.49374373 138.14755779 246.49374373 143.5234375 282.45703125 C143.81790381 284.4157119 144.11237382 286.374392 144.40712416 288.33302993 C145.32234937 294.41497709 146.2340094 300.4974503 147.14306641 306.58032227 C148.07551124 312.81929948 149.01397585 319.05735132 149.9552263 325.29500562 C150.87222158 331.37332837 151.78429914 337.45237856 152.69435501 343.531744 C153.07817054 346.09199711 153.46332474 348.65204992 153.84986496 351.21189308 C154.38509689 354.76019193 154.91472028 358.30928381 155.44287109 361.85864258 C155.60175812 362.90417297 155.76064514 363.94970337 155.92434692 365.0269165 C156.06713074 365.99428238 156.20991455 366.96164825 156.35702515 367.95832825 C156.48197042 368.7922601 156.6069157 369.62619196 156.7356472 370.48539448 C157.03252646 373.30940176 157 376.1604306 157 379 C132.91 379 108.82 379 84 379 C75.42857143 324.57142857 75.42857143 324.57142857 72 301 C55.17 300.67 38.34 300.34 21 300 C20.01 307.26 19.02 314.52 18 322 C17.34183907 326.5361216 16.67804202 331.06976339 15.9921875 335.6015625 C15.82123566 336.73733734 15.65028381 337.87311218 15.47415161 339.04330444 C15.12042534 341.39031485 14.76592927 343.73720938 14.41064453 346.08398438 C13.86619558 349.68320387 13.3255674 353.28298476 12.78515625 356.8828125 C12.437726 359.18492995 12.09007822 361.48701459 11.7421875 363.7890625 C11.58176971 364.85871246 11.42135193 365.92836243 11.256073 367.03042603 C11.10566559 368.02021454 10.95525818 369.01000305 10.80029297 370.02978516 C10.66944305 370.89608551 10.53859314 371.76238586 10.40377808 372.65493774 C10.03621183 374.78968892 9.525372 376.898512 9 379 C-15.09 379 -39.18 379 -64 379 C-61.69071252 359.37105642 -61.69071252 359.37105642 -60.59667969 351.81225586 C-60.46834653 350.91528205 -60.34001337 350.01830824 -60.20779133 349.0941534 C-59.78257494 346.13387689 -59.35297601 343.17426885 -58.921875 340.21484375 C-58.69023557 338.62386053 -58.69023557 338.62386053 -58.45391655 337.00073624 C-57.23415136 328.64410247 -55.99589925 320.29027407 -54.75 311.9375 C-54.56275486 310.68093975 -54.37550972 309.4243795 -54.18259048 308.12974167 C-46.58867759 257.27994659 -37.79285225 206.66119682 -28.6875 156.0625 C-28.5283782 155.17812932 -28.3692564 154.29375865 -28.20531273 153.38258886 C-24.5409617 133.02128396 -20.8504935 112.66476578 -17.14504552 92.31090367 C-14.98080495 80.42121927 -12.83116354 68.52897519 -10.69315517 56.63454592 C-10.23045606 54.06057032 -9.76747325 51.4866459 -9.30439854 48.91273785 C-7.99173893 41.61595427 -6.6797142 34.31906261 -5.37217283 27.02135992 C-4.84741151 24.09516826 -4.32085242 21.16930226 -3.79379249 18.24352384 C-3.55052408 16.89082358 -3.30804483 15.53798113 -3.06640649 14.18498874 C-2.73756814 12.34414868 -2.40576861 10.50383832 -2.07380676 8.66355896 C-1.88938428 7.63564963 -1.7049618 6.60774031 -1.51495075 5.54868221 C-1 3 -1 3 0 0 Z M46 129 C43.91119159 142.89885574 41.82491822 156.79808995 39.74157715 170.6977663 C38.77419336 177.1514693 37.80599115 183.60504733 36.8359375 190.05834961 C35.90034841 196.28257831 34.96688439 202.50712229 34.03491211 208.73189354 C33.67842765 211.11032729 33.32116903 213.48864514 32.96313477 215.86684608 C32.4629753 219.18998276 31.96553475 222.51351561 31.46875 225.8371582 C31.31913818 226.8269014 31.16952637 227.81664459 31.01538086 228.83638 C30.88075439 229.74081848 30.74612793 230.64525696 30.60742188 231.57710266 C30.48943237 232.36339208 30.37144287 233.14968149 30.24987793 233.95979786 C29.93921568 236.15371696 29.93921568 236.15371696 30 239 C40.89 239 51.78 239 63 239 C61.54094317 225.94676408 59.71645257 212.98033458 57.7421875 199.99609375 C57.43092136 197.93534423 57.11990089 195.87455759 56.80911255 193.81373596 C55.99944604 188.44926503 55.18649437 183.08529721 54.37280273 177.72143555 C53.53947708 172.22410187 52.70933496 166.72628753 51.87890625 161.22851562 C50.25567871 150.48521053 48.62897213 139.74243546 47 129 C46.67 129 46.34 129 46 129 Z " fill="#FFFFFF" transform="translate(1477,565)"/>
<path d="M0 0 C117.23868334 0 117.23868334 0 130.6875 4.1875 C131.3875415 4.40108154 132.08758301 4.61466309 132.80883789 4.8347168 C150.17374755 10.41212886 164.35212292 21.1396963 172.7890625 37.4609375 C178.40820748 50.00021177 181.14002637 62.6096635 181.16113281 76.30517578 C181.16609772 77.09340225 181.17106262 77.88162872 181.17617798 78.69374084 C181.19067103 81.27760727 181.19758081 83.86141226 181.203125 86.4453125 C181.20736607 87.78165049 181.20736607 87.78165049 181.21169281 89.1449852 C181.22663501 93.86195924 181.2358952 98.5789031 181.24023438 103.29589844 C181.24570432 108.13041954 181.2697155 112.96465694 181.29820633 117.79908943 C181.31697175 121.5501075 181.3220457 125.30105919 181.32357025 129.05212021 C181.32656724 130.83244244 181.33449374 132.61276435 181.34775543 134.3930397 C181.48327699 153.9876485 178.52788296 172.19685352 166 188 C165.50113281 188.67417969 165.00226562 189.34835937 164.48828125 190.04296875 C150.74941997 207.3809272 126.64114356 216.15170841 105.4375 219.3125 C94.65829535 220.19080556 83.81492828 220 73 220 C73 272.47 73 324.94 73 379 C48.91 379 24.82 379 0 379 C0 253.93 0 128.86 0 0 Z M73 61 C73 93.34 73 125.68 73 159 C89.1172128 159.88409881 89.1172128 159.88409881 103.38694763 153.69786072 C110.09913268 146.63277371 109.57916671 136.42384749 109.49609375 127.33984375 C109.49624915 125.94080022 109.49774482 124.54175627 109.50050354 123.14271545 C109.50187931 120.22702736 109.4894679 117.31183611 109.46655273 114.39624023 C109.43814344 110.68215721 109.44092342 106.96889629 109.45364285 103.25475216 C109.46063772 100.37115099 109.45276811 97.4877358 109.44038582 94.6041584 C109.43591004 93.23559854 109.43550013 91.86701844 109.43945122 90.49845695 C109.67532485 78.03146788 109.67532485 78.03146788 104.40208435 67.12901306 C95.94283032 58.79253697 84.14050387 61 73 61 Z " fill="#FFFFFF" transform="translate(3003,565)"/>
<path d="M0 0 C55.77 0 111.54 0 169 0 C169 20.13 169 40.26 169 61 C137.32 61 105.64 61 73 61 C73 93.34 73 125.68 73 159 C100.39 159 127.78 159 156 159 C156 179.13 156 199.26 156 220 C128.61 220 101.22 220 73 220 C73 252.34 73 284.68 73 318 C104.68 318 136.36 318 169 318 C169 338.13 169 358.26 169 379 C113.23 379 57.46 379 0 379 C0 253.93 0 128.86 0 0 Z " fill="#FFFFFF" transform="translate(1999,565)"/>
<path d="M0 0 C55.77 0 111.54 0 169 0 C169 22.77 169 45.54 169 69 C137.32 69 105.64 69 73 69 C73 105.63 73 142.26 73 180 C100.39 180 127.78 180 156 180 C156 203.1 156 226.2 156 250 C128.61 250 101.22 250 73 250 C73 309.4 73 368.8 73 430 C48.91 430 24.82 430 0 430 C0 288.1 0 146.2 0 0 Z " fill="#FFFFFF" transform="translate(987,514)"/>
<path d="M0 0 C61.38 0 122.76 0 186 0 C186 20.13 186 40.26 186 61 C167.19 61 148.38 61 129 61 C129 165.94 129 270.88 129 379 C105.24 379 81.48 379 57 379 C57 274.06 57 169.12 57 61 C38.19 61 19.38 61 0 61 C0 40.87 0 20.74 0 0 Z " fill="#FFFFFF" transform="translate(2434,565)"/>
<path d="M0 0 C24.09 0 48.18 0 73 0 C73 125.07 73 250.14 73 379 C48.91 379 24.82 379 0 379 C0 253.93 0 128.86 0 0 Z " fill="#FFFFFF" transform="translate(2322,565)"/>
</svg>
